<svg width="79" height="15" viewBox="0 0 79 15" fill="none" xmlns="http://www.w3.org/2000/svg">
<path d="M2.184 10.856V2.9H0.975V12H6.11V10.856H2.184ZM12.3338 5.5V6.618C11.8138 5.825 10.9818 5.331 9.87675 5.331C8.06975 5.331 6.58775 6.826 6.58775 8.75C6.58775 10.674 8.06975 12.169 9.87675 12.169C10.9818 12.169 11.8138 11.675 12.3338 10.882V12H13.4648V5.5H12.3338ZM10.0198 11.077C8.71975 11.077 7.71875 10.076 7.71875 8.75C7.71875 7.424 8.71975 6.423 10.0198 6.423C11.3328 6.423 12.3338 7.424 12.3338 8.75C12.3338 10.076 11.3328 11.077 10.0198 11.077ZM16.1406 7.255C16.1406 6.67 16.7126 6.384 17.2976 6.384C17.8696 6.384 18.4416 6.631 18.6886 7.216L19.6376 6.683C19.2216 5.838 18.3636 5.331 17.2976 5.331C15.9846 5.331 14.9966 6.124 14.9966 7.268C14.9966 9.621 18.6366 8.828 18.6366 10.219C18.6366 10.856 18.0386 11.103 17.3496 11.103C16.5436 11.103 15.9456 10.713 15.7376 10.089L14.7626 10.648C15.1396 11.545 16.0496 12.169 17.3496 12.169C18.7406 12.169 19.7806 11.428 19.7806 10.219C19.7806 7.827 16.1406 8.646 16.1406 7.255ZM24.4018 6.592V5.5H22.6728V3.68L21.5418 4.018V5.5H20.2548V6.592H21.5418V10.115C21.5418 11.74 22.4518 12.26 24.4018 12V10.986C23.2448 11.038 22.6728 11.103 22.6728 10.115V6.592H24.4018ZM28.4049 2.9V4.044H32.7989L29.5099 12H30.7709L34.0859 3.979V2.9H28.4049ZM44.0339 2.9V6.618C43.5139 5.825 42.6819 5.331 41.5769 5.331C39.7699 5.331 38.2879 6.826 38.2879 8.75C38.2879 10.674 39.7699 12.169 41.5769 12.169C42.6819 12.169 43.5139 11.675 44.0339 10.882V12H45.1649V2.9H44.0339ZM41.7199 11.077C40.4199 11.077 39.4189 10.076 39.4189 8.75C39.4189 7.424 40.4199 6.423 41.7199 6.423C43.0329 6.423 44.0339 7.424 44.0339 8.75C44.0339 10.076 43.0329 11.077 41.7199 11.077ZM52.2605 5.5V6.618C51.7405 5.825 50.9085 5.331 49.8035 5.331C47.9965 5.331 46.5145 6.826 46.5145 8.75C46.5145 10.674 47.9965 12.169 49.8035 12.169C50.9085 12.169 51.7405 11.675 52.2605 10.882V12H53.3915V5.5H52.2605ZM49.9465 11.077C48.6465 11.077 47.6455 10.076 47.6455 8.75C47.6455 7.424 48.6465 6.423 49.9465 6.423C51.2595 6.423 52.2605 7.424 52.2605 8.75C52.2605 10.076 51.2595 11.077 49.9465 11.077ZM59.6421 5.5L57.7701 10.596L55.5601 5.5H54.3511L57.1851 11.974L57.0681 12.221C56.7301 13.079 56.1841 13.612 55.3131 13.547V14.6C56.6391 14.691 57.6531 13.859 58.1991 12.403L60.8511 5.5H59.6421ZM62.3643 7.255C62.3643 6.67 62.9363 6.384 63.5213 6.384C64.0933 6.384 64.6653 6.631 64.9123 7.216L65.8613 6.683C65.4453 5.838 64.5873 5.331 63.5213 5.331C62.2083 5.331 61.2203 6.124 61.2203 7.268C61.2203 9.621 64.8603 8.828 64.8603 10.219C64.8603 10.856 64.2623 11.103 63.5733 11.103C62.7673 11.103 62.1693 10.713 61.9613 10.089L60.9863 10.648C61.3633 11.545 62.2733 12.169 63.5733 12.169C64.9643 12.169 66.0043 11.428 66.0043 10.219C66.0043 7.827 62.3643 8.646 62.3643 7.255Z" fill="#ECEBF6"/>
<path d="M78.4286 7.28572L75 10.7143L71.5714 7.28572" stroke="#ECEBF6" stroke-width="1.14286" stroke-linecap="round" stroke-linejoin="round"/>
</svg>
